HIERARCHY
ROOT root
{
	OFFSET 0.000000 0.000000 0.000000
	CHANNELS 6 Xposition Yposition Zposition Zrotation Yrotation Xrotation
	JOINT lhip
	{
		OFFSET 0.058581 -0.082280 -0.017664
		CHANNELS 3 Zrotation Yrotation Xrotation
		JOINT lknee
		{
			OFFSET 0.043451 -0.386469 0.008037
			CHANNELS 3 Zrotation Yrotation Xrotation
			JOINT lankle
			{
				OFFSET -0.014790 -0.426874 -0.037428
				CHANNELS 3 Zrotation Yrotation Xrotation
				JOINT ltoe
				{
					OFFSET 0.041054 -0.060286 0.122042
					CHANNELS 3 Zrotation Yrotation Xrotation
					End Site
					{
						OFFSET 0.000000 0.000000 0.000000
					}
				}
			}
		}
	}
	JOINT rhip
	{
		OFFSET -0.060310 -0.090513 -0.013543
		CHANNELS 3 Zrotation Yrotation Xrotation
		JOINT rknee
		{
			OFFSET -0.043257 -0.383688 -0.004843
			CHANNELS 3 Zrotation Yrotation Xrotation
			JOINT rankle
			{
				OFFSET 0.019056 -0.420046 -0.034562
				CHANNELS 3 Zrotation Yrotation Xrotation
				JOINT rtoe
				{
					OFFSET -0.034840 -0.062106 0.130323
					CHANNELS 3 Zrotation Yrotation Xrotation
					End Site
					{
						OFFSET 0.000000 0.000000 0.000000
					}
				}
			}
		}
	}
	JOINT lowerback
	{
		OFFSET 0.004439 0.124404 -0.038385
		CHANNELS 3 Zrotation Yrotation Xrotation
		JOINT upperback
		{
			OFFSET 0.004488 0.137956 0.026820
			CHANNELS 3 Zrotation Yrotation Xrotation
			JOINT chest
			{
				OFFSET -0.002265 0.056032 0.002855
				CHANNELS 3 Zrotation Yrotation Xrotation
				JOINT lowerneck
				{
					OFFSET -0.013390 0.211636 -0.033468
					CHANNELS 3 Zrotation Yrotation Xrotation
					JOINT upperneck
					{
						OFFSET 0.010113 0.088937 0.050410
						CHANNELS 3 Zrotation Yrotation Xrotation
						End Site
						{
							OFFSET 0.000000 0.000000 0.000000
						}
					}
				}
				JOINT lclavicle
				{
					OFFSET 0.071702 0.114000 -0.018898
					CHANNELS 3 Zrotation Yrotation Xrotation
					JOINT lshoulder
					{
						OFFSET 0.122921 0.045205 -0.019046
						CHANNELS 3 Zrotation Yrotation Xrotation
						JOINT lelbow
						{
							OFFSET 0.255332 -0.015649 -0.022946
							CHANNELS 3 Zrotation Yrotation Xrotation
							JOINT lwrist
							{
								OFFSET 0.265709 0.012698 -0.007375
								CHANNELS 3 Zrotation Yrotation Xrotation
								End Site
								{
									OFFSET 0.000000 0.000000 0.000000
								}
							}
						}
					}
				}
				JOINT rclavicle
				{
					OFFSET -0.082954 0.112472 -0.023707
					CHANNELS 3 Zrotation Yrotation Xrotation
					JOINT rshoulder
					{
						OFFSET -0.113228 0.046853 -0.008472
						CHANNELS 3 Zrotation Yrotation Xrotation
						JOINT relbow
						{
							OFFSET -0.260127 -0.014369 -0.031269
							CHANNELS 3 Zrotation Yrotation Xrotation
							JOINT rwrist
							{
								OFFSET -0.269108 0.006794 -0.006027
								CHANNELS 3 Zrotation Yrotation Xrotation
								End Site
								{
									OFFSET 0.000000 0.000000 0.000000
								}
							}
						}
					}
				}
			}
		}
	}
}
MOTION
Frames: 10
Frame Time: 0.033333
0.988970 0.778532 0.954196 -92.590686 1.690986 93.306805 6.049549 -7.155383 -17.203246 -0.818724 0.777407 28.586260 -4.988542 14.633669 -25.425427 0.000000 -0.000000 0.000000 -6.321057 5.268290 -10.968731 -2.590202 1.029264 41.925655 13.548521 -3.639163 -26.785681 0.000000 -0.000000 0.000000 -5.800882 9.441604 21.998078 1.332335 0.489371 3.044455 1.151466 2.268694 -0.151529 5.019140 3.932616 -0.637930 0.176330 -12.447071 5.102577 -21.129350 -2.936041 1.681351 -41.446649 4.447587 2.043738 10.839123 -21.020679 -1.310141 -5.939771 -14.099835 10.365379 26.815690 9.843727 -0.378898 44.247024 5.901288 9.453051 -18.661099 46.121198 -6.022020 -0.780673 9.028860 0.732844 
0.966906 0.775317 0.958386 -90.852679 1.699078 93.168265 5.386614 -6.388808 -14.586298 -1.082700 -0.731243 26.309569 -5.471526 14.620206 -26.489149 0.000000 -0.000000 0.000000 -6.611595 6.033614 -15.343962 -3.079706 0.838046 42.274446 14.163414 -5.162511 -25.238271 0.000000 -0.000000 0.000000 -5.367745 7.456120 23.278108 1.763618 -0.097474 2.722182 1.493181 1.379864 0.163475 4.396968 3.455972 -0.151352 0.877680 -11.523729 4.970662 -21.155187 -4.077352 1.428749 -39.272356 1.123354 2.928703 10.010771 -24.477619 -2.145887 -4.085562 -14.963583 9.974693 26.614865 8.639486 -0.755282 43.251014 2.598561 9.905681 -17.695608 44.320626 -6.285748 -0.628488 9.058509 1.709612 
0.944163 0.773884 0.960409 -89.340374 1.815199 92.703018 5.043000 -5.420312 -11.648067 -1.313492 -2.385631 24.449811 -5.711648 14.233202 -27.282060 0.000000 -0.000000 0.000000 -6.971656 6.277650 -19.333417 -4.034953 0.220433 41.740583 14.175882 -6.521704 -23.968510 0.000000 -0.000000 0.000000 -4.909244 5.615066 24.587093 2.198583 -0.713683 2.259005 1.947420 0.567037 0.653053 3.744557 3.384182 0.530844 1.844455 -10.795025 4.751305 -20.763459 -5.573027 0.914264 -37.840677 -2.638653 3.449145 9.760374 -26.866504 -3.676972 -2.913675 -15.525666 9.097692 26.409022 7.385686 -0.929920 42.557051 -0.882986 9.973820 -17.002261 42.757182 -6.614925 -0.310040 8.703943 2.593998 
0.920330 0.774093 0.960151 -87.808807 1.883189 92.215726 5.011673 -4.531128 -8.963774 -1.617375 -4.001254 23.367375 -5.648712 13.716680 -28.422123 0.000000 -0.000000 0.000000 -7.619794 5.530167 -23.240977 -4.746759 -0.856648 40.816363 14.088874 -7.952867 -20.969344 0.000000 -0.000000 0.000000 -4.422945 3.901896 25.403200 2.654295 -1.479108 2.033726 2.296171 -0.399068 0.962684 3.225761 3.257518 1.080940 2.497791 -9.803600 5.165633 -20.437961 -7.185471 0.444547 -36.696199 -6.638597 3.540699 10.107567 -28.502875 -4.792387 -1.851646 -16.146765 8.797940 26.415910 5.925412 -0.750131 42.290458 -4.213445 9.925356 -17.047256 41.435929 -6.888610 -0.049536 8.504127 3.756020 
0.895710 0.775741 0.957819 -86.987214 1.935453 91.853239 5.236568 -3.773378 -6.628691 -2.092906 -5.382213 23.157805 -5.613265 13.739228 -30.025364 0.000000 -0.000000 0.000000 -8.515172 4.869003 -27.025131 -4.781913 -2.367999 39.271688 13.812966 -8.870430 -17.568352 0.000000 -0.000000 0.000000 -4.095130 2.331268 25.842651 3.030612 -2.160580 1.659946 2.592445 -1.407906 1.307417 2.535369 3.341361 1.665806 3.033547 -8.854887 5.745865 -20.121448 -8.214356 0.445819 -36.190359 -10.395026 2.978149 11.395595 -31.066880 -6.167921 -1.556638 -16.043359 8.772382 26.068651 4.230392 -0.290946 43.016005 -6.960632 9.685205 -17.512171 40.603093 -7.012094 0.760902 7.668490 3.871171 
0.868402 0.779332 0.954267 -86.467362 2.183216 91.292036 5.838725 -3.156115 -4.053357 -2.382869 -6.321938 23.351239 -5.511207 13.682391 -31.373283 0.000000 -0.000000 0.000000 -8.961057 3.852048 -29.752633 -4.381411 -4.171093 36.774085 13.795509 -9.168897 -13.460449 0.000000 -0.000000 0.000000 -3.777564 0.729519 25.710193 3.428139 -2.872396 1.945047 2.832884 -2.212798 1.616374 2.078498 3.420103 2.006924 3.361399 -7.775388 6.477343 -20.068070 -8.726243 0.424912 -36.342807 -14.152689 2.516257 13.602214 -33.955271 -8.726717 -1.778571 -15.331452 7.352005 26.005492 2.562135 -0.051270 43.673886 -9.000074 9.345739 -17.693076 39.539262 -7.553306 2.267837 7.096157 2.960734 
0.838990 0.784727 0.950446 -86.407040 2.473650 90.872495 6.528912 -2.860443 -1.465401 -2.628488 -6.965895 23.857136 -5.042185 13.995681 -31.765843 0.000000 -0.000000 0.000000 -8.962591 2.791261 -31.573202 -3.376239 -5.918367 33.052640 13.899254 -8.888041 -9.244172 0.000000 -0.000000 0.000000 -3.377527 -0.762894 25.106678 3.723525 -3.465420 2.078136 2.985378 -3.079555 1.970873 1.568816 3.827947 2.219616 3.368269 -6.442258 7.694054 -20.018295 -8.729067 0.795039 -37.527766 -17.356229 2.400530 16.288432 -37.260111 -11.103416 -1.464985 -15.079204 5.664583 25.749996 0.886399 0.479573 44.695563 -10.251485 8.808227 -17.493740 38.236844 -7.153007 3.344714 6.476434 2.698793 
0.805746 0.791784 0.946742 -86.524691 2.555569 90.233786 7.218458 -2.374946 1.530509 -2.670451 -7.018073 24.422932 -5.587513 13.852957 -32.545445 0.000000 -0.000000 0.000000 -8.548559 1.691307 -31.703032 -2.258154 -7.640677 28.651594 14.843775 -7.900235 -6.056922 0.000000 -0.000000 0.000000 -3.117942 -1.850500 24.139471 4.024158 -4.159838 2.470605 3.188379 -3.702726 2.004728 1.134716 4.027950 2.911783 3.134488 -5.442849 9.206581 -20.133334 -8.573080 0.800847 -39.750800 -20.136690 3.097814 18.541863 -39.912374 -12.143703 -1.029744 -16.818123 5.635543 25.510919 -0.477491 0.565462 45.643812 -11.934169 8.278008 -17.164755 36.480913 -5.911133 4.692315 6.474661 3.670018 
0.768824 0.800404 0.943336 -85.630206 2.633436 89.579138 8.395858 -2.238503 4.053920 -2.983264 -7.743710 25.913201 -6.820807 12.424874 -32.219641 0.000000 -0.000000 0.000000 -7.563773 0.091589 -30.435314 -0.931998 -9.042828 24.862700 14.352101 -6.914030 -3.432748 0.000000 -0.000000 0.000000 -2.371894 -3.058577 22.596881 4.428405 -5.171582 2.950148 3.177924 -4.430681 2.014366 0.407557 3.993084 4.163016 3.003889 -4.166264 10.381036 -20.385405 -8.518987 1.055985 -42.638230 -22.012610 4.529351 19.833513 -42.074172 -10.485708 -0.891382 -17.168903 4.151515 25.427816 -1.903061 1.070864 46.467242 -13.131109 7.336448 -16.822861 34.565618 -4.642169 4.906367 6.293630 2.848874 
0.730967 0.811599 0.939650 -85.095259 2.105138 89.116311 9.232956 -2.534388 5.742025 -3.772513 -8.326061 28.820233 -8.142266 11.240073 -30.775848 0.000000 -0.000000 0.000000 -6.803928 -0.026804 -29.402059 -0.224013 -8.865822 24.280373 11.552298 -7.205264 -2.614080 0.000000 -0.000000 0.000000 -2.141648 -3.759749 20.442673 4.665903 -5.870146 3.763318 2.968581 -4.995404 1.964201 -0.600042 3.969373 5.118920 2.732940 -3.139281 11.614787 -20.670134 -8.459351 1.465979 -45.548482 -23.248328 5.789300 20.223663 -43.836419 -8.573541 -1.476707 -16.783516 3.931969 25.667409 -3.212211 1.508362 47.512876 -14.155167 6.158194 -16.767978 32.694040 -4.533915 5.090812 5.694208 1.675623 
